<mxfile host="app.diagrams.net" agent="Mozilla/5.0 (X11; Ubuntu; Linux x86_64; rv:142.0) Gecko/20100101 Firefox/142.0" version="28.1.2">
  <diagram name="Page-1" id="5ffwMkhqinYpKWMneAhO">
    <mxGraphModel dx="1722" dy="1590" grid="1" gridSize="10" guides="1" tooltips="1" connect="1" arrows="1" fold="1" page="1" pageScale="1" pageWidth="850" pageHeight="1100" math="0" shadow="0">
      <root>
        <mxCell id="0" />
        <mxCell id="1" parent="0" />
        <mxCell id="J42q6f2a1OvCjdQg6M31-1" value="Empresa" style="swimlane;fontStyle=1;align=center;verticalAlign=top;childLayout=stackLayout;horizontal=1;startSize=26;horizontalStack=0;resizeParent=1;resizeParentMax=0;resizeLast=0;collapsible=1;marginBottom=0;whiteSpace=wrap;html=1;" parent="1" vertex="1">
          <mxGeometry x="-20" y="120" width="170" height="220" as="geometry" />
        </mxCell>
        <mxCell id="J42q6f2a1OvCjdQg6M31-2" value="- nombre: String&lt;br&gt;- cuil: String&lt;br&gt;- empleados: List&amp;lt;Empleado&amp;gt;&lt;br&gt;- recibosHaberes: List&amp;lt;ReciboDeHaberes&amp;gt;" style="text;strokeColor=none;fillColor=none;align=left;verticalAlign=top;spacingLeft=4;spacingRight=4;overflow=hidden;rotatable=0;points=[[0,0.5],[1,0.5]];portConstraint=eastwest;whiteSpace=wrap;html=1;" parent="J42q6f2a1OvCjdQg6M31-1" vertex="1">
          <mxGeometry y="26" width="170" height="74" as="geometry" />
        </mxCell>
        <mxCell id="J42q6f2a1OvCjdQg6M31-3" value="" style="line;strokeWidth=1;fillColor=none;align=left;verticalAlign=middle;spacingTop=-1;spacingLeft=3;spacingRight=3;rotatable=0;labelPosition=right;points=[];portConstraint=eastwest;strokeColor=inherit;" parent="J42q6f2a1OvCjdQg6M31-1" vertex="1">
          <mxGeometry y="100" width="170" height="8" as="geometry" />
        </mxCell>
        <mxCell id="J42q6f2a1OvCjdQg6M31-4" value="&lt;u&gt;+ new(String, String, List&amp;lt;Empleado&amp;gt;): Empresa&lt;/u&gt;&lt;br&gt;+ realizarLiquidacionSueldos: void&lt;br&gt;+ totalSueldosNetos(): float&lt;br&gt;+ totalSueldosBrutos(): float&lt;br&gt;+ totalRetenciones(): float" style="text;strokeColor=none;fillColor=none;align=left;verticalAlign=top;spacingLeft=4;spacingRight=4;overflow=hidden;rotatable=0;points=[[0,0.5],[1,0.5]];portConstraint=eastwest;whiteSpace=wrap;html=1;" parent="J42q6f2a1OvCjdQg6M31-1" vertex="1">
          <mxGeometry y="108" width="170" height="112" as="geometry" />
        </mxCell>
        <mxCell id="J42q6f2a1OvCjdQg6M31-5" value="&lt;div&gt;&lt;i&gt;Empleado&lt;/i&gt;&lt;/div&gt;" style="swimlane;fontStyle=1;align=center;verticalAlign=top;childLayout=stackLayout;horizontal=1;startSize=26;horizontalStack=0;resizeParent=1;resizeParentMax=0;resizeLast=0;collapsible=1;marginBottom=0;whiteSpace=wrap;html=1;" parent="1" vertex="1">
          <mxGeometry x="286" y="80" width="190" height="250" as="geometry" />
        </mxCell>
        <mxCell id="J42q6f2a1OvCjdQg6M31-6" value="- nombre: String&lt;br&gt;- direccion: String&lt;br&gt;- estadoCivil: String&lt;br&gt;- fechaNacimiento: Date&lt;br&gt;- sueldoBasico: float" style="text;strokeColor=none;fillColor=none;align=left;verticalAlign=top;spacingLeft=4;spacingRight=4;overflow=hidden;rotatable=0;points=[[0,0.5],[1,0.5]];portConstraint=eastwest;whiteSpace=wrap;html=1;" parent="J42q6f2a1OvCjdQg6M31-5" vertex="1">
          <mxGeometry y="26" width="190" height="84" as="geometry" />
        </mxCell>
        <mxCell id="J42q6f2a1OvCjdQg6M31-7" value="" style="line;strokeWidth=1;fillColor=none;align=left;verticalAlign=middle;spacingTop=-1;spacingLeft=3;spacingRight=3;rotatable=0;labelPosition=right;points=[];portConstraint=eastwest;strokeColor=inherit;" parent="J42q6f2a1OvCjdQg6M31-5" vertex="1">
          <mxGeometry y="110" width="190" height="8" as="geometry" />
        </mxCell>
        <mxCell id="J42q6f2a1OvCjdQg6M31-8" value="&lt;u&gt;+ new(String, String, String, Date, float): Empleado&lt;/u&gt;&lt;br&gt;&lt;i&gt;+ sueldoBruto(): float&lt;br&gt;+ retenciones(): float&lt;/i&gt;&lt;br&gt;+ sueldoNeto(): float&lt;br&gt;+ reciboDeHaberes(): ReciboDeHaberes&lt;br&gt;# edad(): int&lt;div&gt;&lt;br&gt;&lt;/div&gt;" style="text;strokeColor=none;fillColor=none;align=left;verticalAlign=top;spacingLeft=4;spacingRight=4;overflow=hidden;rotatable=0;points=[[0,0.5],[1,0.5]];portConstraint=eastwest;whiteSpace=wrap;html=1;" parent="J42q6f2a1OvCjdQg6M31-5" vertex="1">
          <mxGeometry y="118" width="190" height="132" as="geometry" />
        </mxCell>
        <mxCell id="J42q6f2a1OvCjdQg6M31-9" value="ReciboDeHaberes" style="swimlane;fontStyle=1;align=center;verticalAlign=top;childLayout=stackLayout;horizontal=1;startSize=26;horizontalStack=0;resizeParent=1;resizeParentMax=0;resizeLast=0;collapsible=1;marginBottom=0;whiteSpace=wrap;html=1;" parent="1" vertex="1">
          <mxGeometry x="280" y="-100" width="190" height="160" as="geometry" />
        </mxCell>
        <mxCell id="J42q6f2a1OvCjdQg6M31-10" value="- Direccion: String&lt;br&gt;- fechaEmision: Date&lt;br&gt;&lt;div&gt;- sueldoBruto: float&lt;/div&gt;&lt;div&gt;- sueldoNeto: float&lt;br&gt;- desgloceConceptos: String&lt;/div&gt;" style="text;strokeColor=none;fillColor=none;align=left;verticalAlign=top;spacingLeft=4;spacingRight=4;overflow=hidden;rotatable=0;points=[[0,0.5],[1,0.5]];portConstraint=eastwest;whiteSpace=wrap;html=1;" parent="J42q6f2a1OvCjdQg6M31-9" vertex="1">
          <mxGeometry y="26" width="190" height="84" as="geometry" />
        </mxCell>
        <mxCell id="J42q6f2a1OvCjdQg6M31-11" value="" style="line;strokeWidth=1;fillColor=none;align=left;verticalAlign=middle;spacingTop=-1;spacingLeft=3;spacingRight=3;rotatable=0;labelPosition=right;points=[];portConstraint=eastwest;strokeColor=inherit;" parent="J42q6f2a1OvCjdQg6M31-9" vertex="1">
          <mxGeometry y="110" width="190" height="8" as="geometry" />
        </mxCell>
        <mxCell id="J42q6f2a1OvCjdQg6M31-12" value="&lt;u&gt;+ new(String, Date, float, float, String): ReciboDeHaberes&lt;/u&gt;" style="text;strokeColor=none;fillColor=none;align=left;verticalAlign=top;spacingLeft=4;spacingRight=4;overflow=hidden;rotatable=0;points=[[0,0.5],[1,0.5]];portConstraint=eastwest;whiteSpace=wrap;html=1;" parent="J42q6f2a1OvCjdQg6M31-9" vertex="1">
          <mxGeometry y="118" width="190" height="42" as="geometry" />
        </mxCell>
        <mxCell id="J42q6f2a1OvCjdQg6M31-13" value="PlantaPermanente" style="swimlane;fontStyle=1;align=center;verticalAlign=top;childLayout=stackLayout;horizontal=1;startSize=26;horizontalStack=0;resizeParent=1;resizeParentMax=0;resizeLast=0;collapsible=1;marginBottom=0;whiteSpace=wrap;html=1;" parent="1" vertex="1">
          <mxGeometry x="170" y="420" width="160" height="160" as="geometry" />
        </mxCell>
        <mxCell id="J42q6f2a1OvCjdQg6M31-14" value="- cantidadHijos: int&lt;br&gt;- antiguedad: int" style="text;strokeColor=none;fillColor=none;align=left;verticalAlign=top;spacingLeft=4;spacingRight=4;overflow=hidden;rotatable=0;points=[[0,0.5],[1,0.5]];portConstraint=eastwest;whiteSpace=wrap;html=1;" parent="J42q6f2a1OvCjdQg6M31-13" vertex="1">
          <mxGeometry y="26" width="160" height="44" as="geometry" />
        </mxCell>
        <mxCell id="J42q6f2a1OvCjdQg6M31-15" value="" style="line;strokeWidth=1;fillColor=none;align=left;verticalAlign=middle;spacingTop=-1;spacingLeft=3;spacingRight=3;rotatable=0;labelPosition=right;points=[];portConstraint=eastwest;strokeColor=inherit;" parent="J42q6f2a1OvCjdQg6M31-13" vertex="1">
          <mxGeometry y="70" width="160" height="8" as="geometry" />
        </mxCell>
        <mxCell id="J42q6f2a1OvCjdQg6M31-16" value="+ sueldoBruto(): float&lt;br&gt;+ retenciones(): float&lt;br&gt;&lt;u&gt;+ new(String, String, String, Date, float, int, int): PlantaPermanente&lt;/u&gt;" style="text;strokeColor=none;fillColor=none;align=left;verticalAlign=top;spacingLeft=4;spacingRight=4;overflow=hidden;rotatable=0;points=[[0,0.5],[1,0.5]];portConstraint=eastwest;whiteSpace=wrap;html=1;" parent="J42q6f2a1OvCjdQg6M31-13" vertex="1">
          <mxGeometry y="78" width="160" height="82" as="geometry" />
        </mxCell>
        <mxCell id="J42q6f2a1OvCjdQg6M31-17" value="PlantaTemporaria" style="swimlane;fontStyle=1;align=center;verticalAlign=top;childLayout=stackLayout;horizontal=1;startSize=26;horizontalStack=0;resizeParent=1;resizeParentMax=0;resizeLast=0;collapsible=1;marginBottom=0;whiteSpace=wrap;html=1;" parent="1" vertex="1">
          <mxGeometry x="440" y="415" width="170" height="160" as="geometry" />
        </mxCell>
        <mxCell id="J42q6f2a1OvCjdQg6M31-18" value="- fechaFinDesignacion: Date&lt;br&gt;- cantHorasExtra: int" style="text;strokeColor=none;fillColor=none;align=left;verticalAlign=top;spacingLeft=4;spacingRight=4;overflow=hidden;rotatable=0;points=[[0,0.5],[1,0.5]];portConstraint=eastwest;whiteSpace=wrap;html=1;" parent="J42q6f2a1OvCjdQg6M31-17" vertex="1">
          <mxGeometry y="26" width="170" height="44" as="geometry" />
        </mxCell>
        <mxCell id="J42q6f2a1OvCjdQg6M31-19" value="" style="line;strokeWidth=1;fillColor=none;align=left;verticalAlign=middle;spacingTop=-1;spacingLeft=3;spacingRight=3;rotatable=0;labelPosition=right;points=[];portConstraint=eastwest;strokeColor=inherit;" parent="J42q6f2a1OvCjdQg6M31-17" vertex="1">
          <mxGeometry y="70" width="170" height="8" as="geometry" />
        </mxCell>
        <mxCell id="J42q6f2a1OvCjdQg6M31-20" value="+ sueldoBruto(): float&lt;br&gt;+ retenciones(): float&lt;br&gt;&lt;u&gt;+ new(String, String, String, Date, float, Date, int): PlantaTemporaria&lt;/u&gt;" style="text;strokeColor=none;fillColor=none;align=left;verticalAlign=top;spacingLeft=4;spacingRight=4;overflow=hidden;rotatable=0;points=[[0,0.5],[1,0.5]];portConstraint=eastwest;whiteSpace=wrap;html=1;" parent="J42q6f2a1OvCjdQg6M31-17" vertex="1">
          <mxGeometry y="78" width="170" height="82" as="geometry" />
        </mxCell>
        <mxCell id="EdGxASpUeS1JBuMaIeyQ-1" value="" style="endArrow=block;endSize=16;endFill=0;html=1;rounded=0;exitX=0.5;exitY=0;exitDx=0;exitDy=0;entryX=0.5;entryY=1;entryDx=0;entryDy=0;" parent="1" source="J42q6f2a1OvCjdQg6M31-13" target="J42q6f2a1OvCjdQg6M31-5" edge="1">
          <mxGeometry width="160" relative="1" as="geometry">
            <mxPoint x="350" y="320" as="sourcePoint" />
            <mxPoint x="510" y="320" as="targetPoint" />
            <Array as="points">
              <mxPoint x="250" y="360" />
              <mxPoint x="380" y="360" />
            </Array>
          </mxGeometry>
        </mxCell>
        <mxCell id="EdGxASpUeS1JBuMaIeyQ-2" value="" style="endArrow=block;endSize=16;endFill=0;html=1;rounded=0;exitX=0.5;exitY=0;exitDx=0;exitDy=0;entryX=0.75;entryY=1;entryDx=0;entryDy=0;" parent="1" source="J42q6f2a1OvCjdQg6M31-17" target="J42q6f2a1OvCjdQg6M31-5" edge="1">
          <mxGeometry width="160" relative="1" as="geometry">
            <mxPoint x="560" y="450" as="sourcePoint" />
            <mxPoint x="540" y="330" as="targetPoint" />
            <Array as="points">
              <mxPoint x="525" y="360" />
              <mxPoint x="429" y="360" />
            </Array>
          </mxGeometry>
        </mxCell>
        <mxCell id="EdGxASpUeS1JBuMaIeyQ-3" value="" style="endArrow=open;endFill=1;endSize=12;html=1;rounded=0;exitX=1;exitY=0.5;exitDx=0;exitDy=0;entryX=0;entryY=0.5;entryDx=0;entryDy=0;" parent="1" source="J42q6f2a1OvCjdQg6M31-2" target="J42q6f2a1OvCjdQg6M31-6" edge="1">
          <mxGeometry width="160" relative="1" as="geometry">
            <mxPoint x="350" y="200" as="sourcePoint" />
            <mxPoint x="510" y="200" as="targetPoint" />
          </mxGeometry>
        </mxCell>
        <mxCell id="EdGxASpUeS1JBuMaIeyQ-5" value="empleados" style="edgeLabel;html=1;align=center;verticalAlign=middle;resizable=0;points=[];" parent="EdGxASpUeS1JBuMaIeyQ-3" vertex="1" connectable="0">
          <mxGeometry x="-0.0285" y="9" relative="1" as="geometry">
            <mxPoint as="offset" />
          </mxGeometry>
        </mxCell>
        <mxCell id="EdGxASpUeS1JBuMaIeyQ-4" value="" style="endArrow=open;endFill=1;endSize=12;html=1;rounded=0;exitX=0.75;exitY=0;exitDx=0;exitDy=0;entryX=0;entryY=0.5;entryDx=0;entryDy=0;" parent="1" source="J42q6f2a1OvCjdQg6M31-1" target="J42q6f2a1OvCjdQg6M31-10" edge="1">
          <mxGeometry width="160" relative="1" as="geometry">
            <mxPoint x="350" y="200" as="sourcePoint" />
            <mxPoint x="510" y="200" as="targetPoint" />
          </mxGeometry>
        </mxCell>
        <mxCell id="EdGxASpUeS1JBuMaIeyQ-7" value="recibosHaberes" style="edgeLabel;html=1;align=center;verticalAlign=middle;resizable=0;points=[];" parent="EdGxASpUeS1JBuMaIeyQ-4" vertex="1" connectable="0">
          <mxGeometry x="-0.068" y="2" relative="1" as="geometry">
            <mxPoint y="-1" as="offset" />
          </mxGeometry>
        </mxCell>
        <mxCell id="EdGxASpUeS1JBuMaIeyQ-8" value="*" style="edgeLabel;html=1;align=center;verticalAlign=middle;resizable=0;points=[];" parent="EdGxASpUeS1JBuMaIeyQ-4" vertex="1" connectable="0">
          <mxGeometry x="0.8203" y="-2" relative="1" as="geometry">
            <mxPoint x="-6" y="-23" as="offset" />
          </mxGeometry>
        </mxCell>
        <mxCell id="EdGxASpUeS1JBuMaIeyQ-6" value="*" style="text;html=1;align=center;verticalAlign=middle;resizable=0;points=[];autosize=1;strokeColor=none;fillColor=none;" parent="1" vertex="1">
          <mxGeometry x="256" y="120" width="30" height="30" as="geometry" />
        </mxCell>
      </root>
    </mxGraphModel>
  </diagram>
</mxfile>
